# xmcd CD database file
#
# Track frame offsets:
#	150
#	31765
#	55637
#	65074
#	89200
#	102834
#	127648
#	150952
#	169460
#	184806
#	201654
#	216103
#	237977
#	250835
#	267557
#	288209
#
# Disc length: 4134 seconds
#
# Revision: 2
# Processed by: cddbd v1.5.2PL0 Copyright (c) Steve Scherf et al.
# Submitted via: CDex 1.51
#
DISCID=e8102410
DTITLE=Lightnin' Hopkins - Drinkin' The Blues - Golden Classics Part 1
DYEAR=1900
DGENRE=Blues
TTITLE0=Big Black Cadillac Blues
TTITLE1=Early In The Mornin' Blues
TTITLE2=Coffee House Blues
TTITLE3=I've Been Buked And Scorned
TTITLE4=Stool Pidgeon Blues
TTITLE5=Brand New Car
TTITLE6=Drinkin' In The Blues
TTITLE7=Shining Moon
TTITLE8=Ball Of Twine
TTITLE9=Fugitive Blues
TTITLE10=G String Blues
TTITLE11=Grandma Told Grandpa
TTITLE12=Rain
TTITLE13=Goin' To Dallas
TTITLE14=Last Night
TTITLE15=Shake It Baby
EXTD=
EXTT0=
EXTT1=
EXTT2=
EXTT3=
EXTT4=
EXTT5=
EXTT6=
EXTT7=
EXTT8=
EXTT9=
EXTT10=
EXTT11=
EXTT12=
EXTT13=
EXTT14=
EXTT15=
PLAYORDER=
